<?xml version="1.0" encoding="UTF-8"?>
<svg viewBox="0 0 285 60" xmlns="http://www.w3.org/2000/svg">
	<path fill="#e8c607" d="M39.39 14.643a18.136 18.136 0 00-2.784-3.58A17.942 17.942 0 0023.833 5.77a17.94 17.94 0 00-12.772 5.29v.001a17.94 17.94 0 00-5.29 12.771c0 4.825 1.878 9.361 5.29 12.773a18.23 18.23 0 003.581 2.783c-1.157-6.626.817-13.694 5.936-18.81 5.118-5.119 12.184-7.095 18.811-5.936z"/>
	<path fill="#e83707" d="M50.81 50.81c11.623-11.623 11.623-30.469 0-42.093-11.624-11.623-30.47-11.623-42.093 0C17.067.37 30.601.37 38.95 8.717c8.348 8.348 8.348 21.884 0 30.232-8.348 8.35-21.883 8.35-30.232 0C.37 30.601.37 17.065 8.717 8.717c-11.623 11.624-11.623 30.47 0 42.093 11.623 11.623 30.47 11.623 42.093 0z"/>
	<g transform="translate(90 12)">
		<path fill="#1f1e18" d="M8.717 17.138c.69 0 1.4-.084 2.127-.253a9.023 9.023 0 002.048-.736 7.08 7.08 0 001.702-1.196 4.654 4.654 0 001.115-1.61l-3.657-2.185a2.753 2.753 0 01-.563.931c-.238.253-.507.46-.806.621a3.504 3.504 0 01-.931.345 4.494 4.494 0 01-.943.104 3.428 3.428 0 01-1.575-.357 3.6 3.6 0 01-1.185-.954 4.26 4.26 0 01-.736-1.38 5.272 5.272 0 01-.253-1.633c0-.506.073-1.016.219-1.53.145-.513.367-.973.667-1.38a3.432 3.432 0 011.15-.989c.467-.252 1.023-.379 1.667-.379.307 0 .625.03.954.092a3.6 3.6 0 01.955.322c.307.153.586.36.84.621.252.26.456.59.609.989l3.427-2.438c-.567-1.073-1.43-1.936-2.588-2.587C11.803.904 10.434.578 8.855.578c-1.319 0-2.492.238-3.519.713a8.382 8.382 0 00-2.622 1.863 7.994 7.994 0 00-1.645 2.599 8.062 8.062 0 00-.563 2.944c0 1.043.2 2.07.598 3.082a8.738 8.738 0 001.69 2.714 8.429 8.429 0 002.6 1.92c1.004.483 2.112.725 3.323.725zm18.686 0c1.211 0 2.327-.23 3.347-.69a8.485 8.485 0 002.633-1.829 8.378 8.378 0 001.725-2.621c.414-.99.621-2.02.621-3.094a8.309 8.309 0 00-.587-3.059 8.463 8.463 0 00-1.667-2.668 8.275 8.275 0 00-2.599-1.886C29.864.816 28.737.578 27.495.578c-1.211 0-2.327.226-3.347.678a8.467 8.467 0 00-2.645 1.818 8.245 8.245 0 00-1.736 2.633 8.018 8.018 0 00-.621 3.105c0 1.058.2 2.085.598 3.082a8.493 8.493 0 001.679 2.656c.72.775 1.587 1.4 2.599 1.875 1.012.475 2.139.713 3.381.713zm.046-3.979c-.644 0-1.2-.123-1.668-.368a3.486 3.486 0 01-1.161-.966 4.184 4.184 0 01-.69-1.368 5.747 5.747 0 01-.011-3.174c.145-.514.371-.974.678-1.38a3.429 3.429 0 011.162-.978c.467-.245 1.023-.368 1.667-.368.629 0 1.177.119 1.645.356.467.238.858.552 1.172.943.315.391.549.844.702 1.357.153.514.23 1.047.23 1.599a5.87 5.87 0 01-.219 1.587 4.256 4.256 0 01-.666 1.392 3.4 3.4 0 01-1.162.989c-.475.253-1.035.379-1.679.379zM45.123 17V8.398l2.737 6.049h2.392l2.737-6.049V17h4.485V.67h-4.876l-3.542 7.682L45.537.67h-4.899V17h4.485zm22.642 0V.67H63.28V17h4.485zm10.291 0V8.973L84.542 17h3.565V.67h-4.485v8.303L77.067.67h-3.496V17h4.485zm22.918.115c1.518 0 2.86-.49 4.025-1.472V17h3.703V8.306h-6.716v3.22h2.829c-.997 1.073-2.147 1.61-3.45 1.61a3.714 3.714 0 01-1.541-.31 3.43 3.43 0 01-1.184-.875 4.066 4.066 0 01-.771-1.345 5.226 5.226 0 01-.276-1.748c0-.629.092-1.208.276-1.737.184-.529.437-.985.759-1.368a3.341 3.341 0 012.622-1.219c.72 0 1.403.196 2.047.587a3.76 3.76 0 011.449 1.552l3.335-2.553a5.713 5.713 0 00-1.127-1.484 7.385 7.385 0 00-1.552-1.127 7.532 7.532 0 00-1.875-.712 9.087 9.087 0 00-2.116-.242c-1.18 0-2.28.21-3.3.632a8.365 8.365 0 00-2.657 1.726 7.964 7.964 0 00-2.415 5.784c0 1.334.215 2.522.644 3.565.43 1.043 1.004 1.924 1.725 2.645a7.255 7.255 0 002.53 1.645 8.303 8.303 0 003.036.563zm27.114.092c.751 0 1.499-.088 2.243-.265a6.023 6.023 0 002-.862 4.431 4.431 0 001.427-1.598c.36-.667.54-1.492.54-2.473 0-.767-.115-1.418-.345-1.955a3.762 3.762 0 00-.989-1.369 6.316 6.316 0 00-1.553-.977 16.725 16.725 0 00-2.035-.759c-.475-.153-.9-.284-1.276-.391a7.506 7.506 0 01-.955-.333 1.962 1.962 0 01-.598-.38.716.716 0 01-.207-.529c0-.291.119-.498.356-.621.238-.123.556-.184.955-.184a5 5 0 011.507.242 12.868 12.868 0 012.817 1.253l1.932-3.703c-.368-.184-.782-.38-1.242-.587-.46-.206-.954-.398-1.483-.575a13.974 13.974 0 00-1.645-.436 8.777 8.777 0 00-1.748-.173c-.813 0-1.583.119-2.311.356a6.02 6.02 0 00-1.944 1.047 4.912 4.912 0 00-1.346 1.725c-.33.69-.494 1.487-.494 2.392 0 .598.08 1.127.242 1.587.16.46.41.87.747 1.23s.767.683 1.288.966a12.03 12.03 0 001.863.794c.49.169.954.314 1.391.437.438.123.825.245 1.162.368.337.123.602.264.793.426a.74.74 0 01.288.586.6.6 0 01-.287.518c-.192.13-.533.195-1.024.195a6.645 6.645 0 01-1.898-.276 11.906 11.906 0 01-1.667-.621c-.583-.26-1.142-.56-1.679-.897l-1.932 3.933c.49.291 1.023.552 1.599.782a16.401 16.401 0 003.668.989c.629.092 1.242.138 1.84.138zm18.548-.069c1.211 0 2.327-.23 3.346-.69a8.485 8.485 0 002.634-1.829 8.378 8.378 0 001.725-2.621c.414-.99.621-2.02.621-3.094a8.309 8.309 0 00-.587-3.059 8.463 8.463 0 00-1.667-2.668 8.275 8.275 0 00-2.599-1.886c-1.012-.475-2.139-.713-3.381-.713-1.211 0-2.327.226-3.347.678a8.467 8.467 0 00-2.644 1.818A8.245 8.245 0 00139 5.707a8.018 8.018 0 00-.621 3.105c0 1.058.2 2.085.598 3.082a8.493 8.493 0 001.679 2.656c.72.775 1.587 1.4 2.599 1.875 1.012.475 2.139.713 3.381.713zm.046-3.979c-.644 0-1.2-.123-1.667-.368a3.486 3.486 0 01-1.162-.966 4.184 4.184 0 01-.69-1.368 5.747 5.747 0 01-.012-3.174 4.14 4.14 0 01.679-1.38 3.429 3.429 0 011.161-.978c.468-.245 1.024-.368 1.668-.368.629 0 1.177.119 1.645.356.467.238.858.552 1.172.943.315.391.549.844.702 1.357.153.514.23 1.047.23 1.599a5.87 5.87 0 01-.218 1.587 4.256 4.256 0 01-.667 1.392 3.4 3.4 0 01-1.162.989c-.475.253-1.035.379-1.679.379zm20.549 3.979c1.211 0 2.327-.23 3.346-.69a8.485 8.485 0 002.634-1.829 8.378 8.378 0 001.725-2.621c.414-.99.621-2.02.621-3.094a8.309 8.309 0 00-.587-3.059 8.463 8.463 0 00-1.667-2.668 8.275 8.275 0 00-2.599-1.886c-1.012-.475-2.139-.713-3.381-.713-1.211 0-2.327.226-3.347.678a8.467 8.467 0 00-2.644 1.818 8.245 8.245 0 00-1.737 2.633 8.018 8.018 0 00-.621 3.105c0 1.058.2 2.085.598 3.082a8.493 8.493 0 001.679 2.656c.72.775 1.587 1.4 2.599 1.875 1.012.475 2.139.713 3.381.713zm.046-3.979c-.644 0-1.2-.123-1.667-.368a3.486 3.486 0 01-1.162-.966 4.184 4.184 0 01-.69-1.368 5.747 5.747 0 01-.012-3.174 4.14 4.14 0 01.679-1.38 3.429 3.429 0 011.161-.978c.468-.245 1.024-.368 1.668-.368.629 0 1.177.119 1.645.356.467.238.858.552 1.172.943.315.391.549.844.702 1.357.153.514.23 1.047.23 1.599a5.87 5.87 0 01-.218 1.587 4.256 4.256 0 01-.667 1.392 3.4 3.4 0 01-1.162.989c-.475.253-1.035.379-1.679.379zM184.951 17V8.973L191.437 17h3.565V.67h-4.485v8.303L183.962.67h-3.496V17h4.485z"/>
		<path fill="#d2d2d1" d="M4.476 39.072c.656 0 1.222-.11 1.698-.33.476-.22.868-.522 1.176-.906.308-.384.536-.832.684-1.344a5.94 5.94 0 00.222-1.656V30.48H6.288v4.356c0 .312-.03.618-.09.918-.06.3-.162.566-.306.798a1.672 1.672 0 01-.564.558c-.232.14-.516.21-.852.21-.336 0-.618-.068-.846-.204a1.637 1.637 0 01-.558-.552 2.484 2.484 0 01-.312-.792 4.42 4.42 0 01-.096-.936V30.48H.696v4.356c0 .56.07 1.096.21 1.608.14.512.36.962.66 1.35.3.388.69.698 1.17.93.48.232 1.06.348 1.74.348zM14.948 39v-4.872L18.872 39h1.584v-8.52h-1.968v5.004l-3.972-5.004H12.98V39h1.968zm13.52 0c.64 0 1.222-.102 1.746-.306a3.848 3.848 0 001.344-.864c.372-.372.658-.82.858-1.344.2-.524.3-1.11.3-1.758 0-.584-.09-1.134-.27-1.65a3.803 3.803 0 00-.804-1.35 3.806 3.806 0 00-1.326-.912c-.528-.224-1.144-.336-1.848-.336h-3.18V39h3.18zm0-1.728h-1.212v-5.064h1.212c.352 0 .668.06.948.18.28.12.516.292.708.516.192.224.338.49.438.798.1.308.15.65.15 1.026 0 .368-.05.706-.15 1.014-.1.308-.244.576-.432.804a1.942 1.942 0 01-.702.534c-.28.128-.6.192-.96.192zM43.068 39v-1.728h-4.02V35.46h3.36v-1.596h-3.36v-1.656h3.912V30.48h-5.88V39h5.988zm6.368 0v-2.748h1.284L52.352 39h2.22L52.7 35.832a2.613 2.613 0 001.02-1.02 2.962 2.962 0 00.372-1.452c0-.352-.07-.7-.21-1.044a3.088 3.088 0 00-.582-.924 2.949 2.949 0 00-.882-.66 2.471 2.471 0 00-1.11-.252h-3.84V39h1.968zm1.8-4.464h-1.8v-2.328h1.74c.224 0 .432.104.624.312.192.208.288.488.288.84 0 .344-.084.626-.252.846-.168.22-.368.33-.6.33zm17.176 4.536c.352 0 .712-.044 1.08-.132a4.657 4.657 0 001.044-.384c.328-.168.618-.376.87-.624s.442-.528.57-.84l-1.608-.948a1.682 1.682 0 01-.348.546 1.93 1.93 0 01-.474.36c-.172.092-.352.16-.54.204-.188.044-.37.066-.546.066-.344 0-.654-.07-.93-.21a2.174 2.174 0 01-.708-.57 2.59 2.59 0 01-.45-.828 3.053 3.053 0 01-.156-.972c0-.312.044-.62.132-.924.088-.304.224-.576.408-.816.184-.24.416-.436.696-.588.28-.152.608-.228.984-.228.176 0 .356.018.54.054a1.985 1.985 0 011.026.552c.148.148.27.334.366.558l1.512-1.056c-.288-.552-.726-1-1.314-1.344-.588-.344-1.282-.516-2.082-.516-.672 0-1.272.124-1.8.372a4.172 4.172 0 00-2.184 2.334 4.3 4.3 0 00-.288 1.53c0 .544.102 1.08.306 1.608.204.528.492 1 .864 1.416.372.416.816.75 1.332 1.002a3.817 3.817 0 001.698.378zm11.396 0c.616 0 1.184-.12 1.704-.36a4.34 4.34 0 001.344-.954c.376-.396.67-.854.882-1.374.212-.52.318-1.06.318-1.62 0-.536-.1-1.064-.3-1.584-.2-.52-.484-.984-.852-1.392a4.215 4.215 0 00-1.332-.984 3.963 3.963 0 00-1.728-.372c-.616 0-1.184.118-1.704.354a4.33 4.33 0 00-1.35.948 4.32 4.32 0 00-.888 1.374 4.252 4.252 0 00-.318 1.62c0 .552.102 1.088.306 1.608.204.52.49.982.858 1.386.368.404.812.73 1.332.978s1.096.372 1.728.372zm.012-1.752c-.36 0-.68-.072-.96-.216a2.098 2.098 0 01-.702-.576 2.55 2.55 0 01-.426-.822 3.274 3.274 0 01-.006-1.896 2.46 2.46 0 01.42-.822c.188-.24.42-.434.696-.582a2.04 2.04 0 01.978-.222c.36 0 .678.07.954.21.276.14.51.328.702.564.192.236.336.508.432.816a3.274 3.274 0 01.006 1.896c-.092.308-.23.584-.414.828a2.134 2.134 0 01-.696.594c-.28.152-.608.228-.984.228zM90.364 39v-4.872L94.288 39h1.584v-8.52h-1.968v5.004l-3.972-5.004h-1.536V39h1.968zm13.376.096c.408 0 .804-.046 1.188-.138.384-.092.724-.24 1.02-.444.296-.204.534-.472.714-.804.18-.332.27-.738.27-1.218 0-.392-.062-.728-.186-1.008s-.3-.518-.528-.714a2.965 2.965 0 00-.834-.492 10.2 10.2 0 00-1.104-.366 57.26 57.26 0 01-.78-.216 3.103 3.103 0 01-.558-.21 1.007 1.007 0 01-.336-.258.562.562 0 01-.114-.36c0-.472.352-.708 1.056-.708.256 0 .512.036.768.108a5.228 5.228 0 011.248.528c.144.088.228.148.252.18l.864-1.632a10.023 10.023 0 00-.63-.336 5.914 5.914 0 00-.738-.3 6.599 6.599 0 00-.828-.216 4.579 4.579 0 00-.876-.084c-.424 0-.826.06-1.206.18s-.714.298-1.002.534a2.564 2.564 0 00-.684.87c-.168.344-.252.74-.252 1.188 0 .32.046.6.138.84.092.24.232.452.42.636.188.184.426.346.714.486s.628.27 1.02.39c.296.088.57.168.822.24.252.072.47.15.654.234.184.084.328.178.432.282a.537.537 0 01.156.396c0 .424-.348.636-1.044.636a3.65 3.65 0 01-.972-.132 6.68 6.68 0 01-.87-.3 4.675 4.675 0 01-.654-.336c-.176-.112-.28-.188-.312-.228l-.864 1.716c.248.168.518.316.81.444.292.128.594.238.906.33a6.946 6.946 0 001.92.282zM115.124 39v-6.792h2.592V30.48h-7.164v1.728h2.604V39h1.968zm8.72 0v-2.748h1.284L126.76 39h2.22l-1.872-3.168a2.613 2.613 0 001.02-1.02 2.962 2.962 0 00.372-1.452c0-.352-.07-.7-.21-1.044a3.088 3.088 0 00-.582-.924 2.949 2.949 0 00-.882-.66 2.471 2.471 0 00-1.11-.252h-3.84V39h1.968zm1.8-4.464h-1.8v-2.328h1.74c.224 0 .432.104.624.312.192.208.288.488.288.84 0 .344-.084.626-.252.846-.168.22-.368.33-.6.33zm11.132 4.536c.656 0 1.222-.11 1.698-.33.476-.22.868-.522 1.176-.906.308-.384.536-.832.684-1.344a5.94 5.94 0 00.222-1.656V30.48h-1.968v4.356c0 .312-.03.618-.09.918-.06.3-.162.566-.306.798a1.672 1.672 0 01-.564.558c-.232.14-.516.21-.852.21-.336 0-.618-.068-.846-.204a1.637 1.637 0 01-.558-.552 2.484 2.484 0 01-.312-.792 4.42 4.42 0 01-.096-.936V30.48h-1.968v4.356c0 .56.07 1.096.21 1.608.14.512.36.962.66 1.35.3.388.69.698 1.17.93.48.232 1.06.348 1.74.348zm12.212 0c.352 0 .712-.044 1.08-.132a4.657 4.657 0 001.044-.384c.328-.168.618-.376.87-.624s.442-.528.57-.84l-1.608-.948a1.682 1.682 0 01-.348.546 1.93 1.93 0 01-.474.36c-.172.092-.352.16-.54.204-.188.044-.37.066-.546.066-.344 0-.654-.07-.93-.21a2.174 2.174 0 01-.708-.57 2.59 2.59 0 01-.45-.828 3.053 3.053 0 01-.156-.972c0-.312.044-.62.132-.924.088-.304.224-.576.408-.816.184-.24.416-.436.696-.588.28-.152.608-.228.984-.228.176 0 .356.018.54.054a1.985 1.985 0 011.026.552c.148.148.27.334.366.558l1.512-1.056c-.288-.552-.726-1-1.314-1.344-.588-.344-1.282-.516-2.082-.516-.672 0-1.272.124-1.8.372a4.172 4.172 0 00-2.184 2.334 4.3 4.3 0 00-.288 1.53c0 .544.102 1.08.306 1.608.204.528.492 1 .864 1.416.372.416.816.75 1.332 1.002a3.817 3.817 0 001.698.378zM160.552 39v-6.792h2.592V30.48h-7.164v1.728h2.604V39h1.968zm8.72 0v-8.52h-1.968V39h1.968zm8.564.072c.616 0 1.184-.12 1.704-.36a4.34 4.34 0 001.344-.954c.376-.396.67-.854.882-1.374.212-.52.318-1.06.318-1.62 0-.536-.1-1.064-.3-1.584-.2-.52-.484-.984-.852-1.392a4.215 4.215 0 00-1.332-.984 3.963 3.963 0 00-1.728-.372c-.616 0-1.184.118-1.704.354a4.33 4.33 0 00-1.35.948 4.32 4.32 0 00-.888 1.374 4.252 4.252 0 00-.318 1.62c0 .552.102 1.088.306 1.608.204.52.49.982.858 1.386.368.404.812.73 1.332.978s1.096.372 1.728.372zm.012-1.752c-.36 0-.68-.072-.96-.216a2.098 2.098 0 01-.702-.576 2.55 2.55 0 01-.426-.822 3.274 3.274 0 01-.006-1.896 2.46 2.46 0 01.42-.822c.188-.24.42-.434.696-.582a2.04 2.04 0 01.978-.222c.36 0 .678.07.954.21.276.14.51.328.702.564.192.236.336.508.432.816a3.274 3.274 0 01.006 1.896c-.092.308-.23.584-.414.828a2.134 2.134 0 01-.696.594c-.28.152-.608.228-.984.228zM188.392 39v-4.872L192.316 39h1.584v-8.52h-1.968v5.004l-3.972-5.004h-1.536V39h1.968z"/>
	</g>
</svg>
